<?xml version="1.0" encoding="UTF-8"?>
<svg id="_Слой_1" data-name="Слой 1" xmlns="http://www.w3.org/2000/svg" xmlns:xlink="http://www.w3.org/1999/xlink" viewBox="0 0 43.36 8.45">
  <defs>
    <style>
      .cls-1 {
        fill: url(#_Безымянный_градиент_31-19);
      }

      .cls-2 {
        fill: url(#_Безымянный_градиент_31-9);
      }

      .cls-3 {
        fill: url(#_Безымянный_градиент_31-5);
      }

      .cls-4 {
        fill: url(#_Безымянный_градиент_31-2);
      }

      .cls-5 {
        fill: url(#_Безымянный_градиент_31-10);
      }

      .cls-6 {
        fill: url(#_Безымянный_градиент_31-4);
      }

      .cls-7 {
        fill: url(#_Безымянный_градиент_31-14);
      }

      .cls-8 {
        fill: url(#_Безымянный_градиент_31-3);
      }

      .cls-9 {
        fill: url(#_Безымянный_градиент_31-17);
      }

      .cls-10 {
        fill: url(#_Безымянный_градиент_31-11);
      }

      .cls-11 {
        fill: url(#_Безымянный_градиент_31-16);
      }

      .cls-12 {
        fill: url(#_Безымянный_градиент_31-8);
      }

      .cls-13 {
        fill: url(#_Безымянный_градиент_31-13);
      }

      .cls-14 {
        fill: url(#_Безымянный_градиент_31-6);
      }

      .cls-15 {
        fill: url(#_Безымянный_градиент_31-15);
      }

      .cls-16 {
        fill: url(#_Безымянный_градиент_31-12);
      }

      .cls-17 {
        fill: url(#_Безымянный_градиент_31-7);
      }

      .cls-18 {
        fill: url(#_Безымянный_градиент_31);
      }

      .cls-19 {
        fill: url(#_Безымянный_градиент_31-18);
      }
    </style>
    <linearGradient id="_Безымянный_градиент_31" data-name="Безымянный градиент 31" x1="-1.25" y1="4.17" x2="39.61" y2="4.73" gradientUnits="userSpaceOnUse">
      <stop offset="0" stop-color="#f9ed24"/>
      <stop offset=".64" stop-color="#f6aa20"/>
      <stop offset="1" stop-color="#f5841f"/>
    </linearGradient>
    <linearGradient id="_Безымянный_градиент_31-2" data-name="Безымянный градиент 31" x1="-1.25" y1="4.25" x2="39.61" y2="4.81" xlink:href="#_Безымянный_градиент_31"/>
    <linearGradient id="_Безымянный_градиент_31-3" data-name="Безымянный градиент 31" x1="-1.25" y1="4.26" x2="39.61" y2="4.82" xlink:href="#_Безымянный_градиент_31"/>
    <linearGradient id="_Безымянный_градиент_31-4" data-name="Безымянный градиент 31" x1="-1.25" y1="4.08" x2="39.61" y2="4.64" xlink:href="#_Безымянный_градиент_31"/>
    <linearGradient id="_Безымянный_градиент_31-5" data-name="Безымянный градиент 31" x1="-1.25" y1="4.13" x2="39.61" y2="4.68" xlink:href="#_Безымянный_градиент_31"/>
    <linearGradient id="_Безымянный_градиент_31-6" data-name="Безымянный градиент 31" x1="-1.25" y1="4.11" x2="39.61" y2="4.67" xlink:href="#_Безымянный_градиент_31"/>
    <linearGradient id="_Безымянный_градиент_31-7" data-name="Безымянный градиент 31" x1="-1.24" y1="4.19" x2="39.55" y2="4.74" xlink:href="#_Безымянный_градиент_31"/>
    <linearGradient id="_Безымянный_градиент_31-8" data-name="Безымянный градиент 31" x1="-4.07" y1="3.96" x2="43.88" y2="4.61" xlink:href="#_Безымянный_градиент_31"/>
    <linearGradient id="_Безымянный_градиент_31-9" data-name="Безымянный градиент 31" x1="-4.07" y1="3.93" x2="43.88" y2="4.58" xlink:href="#_Безымянный_градиент_31"/>
    <linearGradient id="_Безымянный_градиент_31-10" data-name="Безымянный градиент 31" x1="-4.07" y1="3.89" x2="43.88" y2="4.54" xlink:href="#_Безымянный_градиент_31"/>
    <linearGradient id="_Безымянный_градиент_31-11" data-name="Безымянный градиент 31" x1="-4.07" y1="3.96" x2="43.88" y2="4.61" xlink:href="#_Безымянный_градиент_31"/>
    <linearGradient id="_Безымянный_градиент_31-12" data-name="Безымянный градиент 31" x1="-4.07" y1="3.82" x2="43.88" y2="4.47" xlink:href="#_Безымянный_градиент_31"/>
    <linearGradient id="_Безымянный_градиент_31-13" data-name="Безымянный градиент 31" x1="-4.07" y1="3.79" x2="43.88" y2="4.44" xlink:href="#_Безымянный_градиент_31"/>
    <linearGradient id="_Безымянный_градиент_31-14" data-name="Безымянный градиент 31" x1="-4.07" y1="3.76" x2="43.88" y2="4.41" xlink:href="#_Безымянный_градиент_31"/>
    <linearGradient id="_Безымянный_градиент_31-15" data-name="Безымянный градиент 31" x1="-4.07" y1="3.73" x2="43.88" y2="4.38" xlink:href="#_Безымянный_градиент_31"/>
    <linearGradient id="_Безымянный_градиент_31-16" data-name="Безымянный градиент 31" x1="-4.07" y1="3.68" x2="43.88" y2="4.34" xlink:href="#_Безымянный_градиент_31"/>
    <linearGradient id="_Безымянный_градиент_31-17" data-name="Безымянный градиент 31" x1="-4.07" y1="3.66" x2="43.88" y2="4.31" xlink:href="#_Безымянный_градиент_31"/>
    <linearGradient id="_Безымянный_градиент_31-18" data-name="Безымянный градиент 31" x1="-4.07" y1="3.62" x2="43.88" y2="4.27" xlink:href="#_Безымянный_градиент_31"/>
    <linearGradient id="_Безымянный_градиент_31-19" data-name="Безымянный градиент 31" x1="-4.07" y1="3.71" x2="43.88" y2="4.36" xlink:href="#_Безымянный_градиент_31"/>
  </defs>
  <g>
    <path class="cls-18" d="m1.81,6.83v.83c0,.44.36.8.8.8h.36c.44,0,.8-.36.8-.8V.8c0-.44-.36-.8-.8-.8h-.36c-.44,0-.8.36-.8.8v6.03Z"/>
    <path class="cls-4" d="m.63,3.66v-1.32c0-.35.28-.63.63-.63h.33c.08,0,.15.01.22.04v5.08c-.07.03-.14.04-.22.04h-.33c-.35,0-.63-.28-.63-.63v-2.58Z"/>
    <path class="cls-8" d="m.63,4.92h-.1c-.29,0-.53-.24-.53-.53v-.2c0-.29.24-.53.53-.53h.1v1.26Z"/>
    <path class="cls-6" d="m10.38,6.83v.83c0,.44-.36.8-.8.8h-.36c-.44,0-.8-.36-.8-.8V.8c0-.44.36-.8.8-.8h.36c.44,0,.8.36.8.8v6.03Z"/>
    <path class="cls-3" d="m11.56,3.66v-1.32c0-.35-.28-.63-.63-.63h-.33c-.08,0-.15.01-.22.04v5.08c.07.03.14.04.22.04h.33c.35,0,.63-.28.63-.63v-2.58Z"/>
    <path class="cls-14" d="m11.56,3.66h.1c.29,0,.53.24.53.53v.2c0,.29-.24.53-.53.53h-.1v-1.26Z"/>
    <rect class="cls-17" x="3.94" y="3.54" width="4.31" height="1.5" rx=".65" ry=".65"/>
  </g>
  <g>
    <path class="cls-12" d="m15.48,5.38s0,.07-.03.09c-.02.02-.05.02-.08.02h-.38s-.06,0-.08-.02c-.02-.02-.03-.04-.03-.09v-.2h-.14c-.11,0-.23-.01-.35-.03-.12-.02-.22-.07-.32-.13-.09-.06-.17-.15-.23-.26-.06-.11-.09-.26-.09-.44v-.18c0-.18.03-.33.09-.45.06-.12.14-.21.23-.27.09-.06.2-.11.32-.13.12-.02.23-.03.35-.03h.14v-.2s0-.07.03-.09c.02-.02.05-.02.08-.02h.38s.07.01.09.04c.02.03.02.05.02.08v.19h.14c.11,0,.23.01.35.03.12.02.22.07.32.13.09.06.17.15.23.27.06.12.09.27.09.45v.18c0,.18-.03.33-.09.44-.06.11-.14.2-.23.26-.09.06-.2.11-.32.13-.12.02-.23.03-.35.03h-.14v.2Zm-1.13-1.07c0,.12.03.21.1.28.07.06.16.09.29.09h.15v-.93h-.15c-.13,0-.22.03-.29.1-.07.07-.1.16-.1.28v.17Zm1.27.37c.13,0,.22-.03.29-.09.07-.06.1-.15.1-.28v-.17c0-.12-.03-.22-.1-.28-.07-.07-.16-.1-.29-.1h-.15v.93h.15Z"/>
    <path class="cls-2" d="m18.97,4.68c0,.15-.03.28-.1.39s-.15.2-.25.27c-.1.07-.21.12-.33.15-.12.03-.24.05-.35.05s-.23-.02-.35-.05c-.12-.03-.23-.08-.33-.15-.1-.07-.18-.16-.24-.27-.06-.11-.1-.24-.1-.39v-.9c0-.15.03-.28.1-.39.06-.11.15-.2.24-.27.1-.07.21-.12.33-.15.12-.03.24-.05.35-.05s.23.02.35.05.23.08.33.15c.1.07.18.16.25.27.07.11.1.24.1.39v.9Zm-.6-.85c0-.12-.04-.22-.12-.28-.08-.07-.18-.1-.31-.1s-.23.03-.31.1c-.08.07-.12.16-.12.28v.8c0,.12.04.22.12.28.08.07.18.1.31.1s.23-.03.31-.1c.08-.07.12-.16.12-.28v-.8Z"/>
    <path class="cls-5" d="m21.56,2.97s.06.01.06.04,0,.05-.02.07l-.86.93.82,1.35s.02.05,0,.08c0,.03-.03.04-.07.04h-.47s-.08-.01-.11-.03c-.03-.02-.05-.05-.08-.09-.07-.11-.13-.22-.2-.33-.06-.09-.12-.19-.18-.3-.06-.11-.12-.2-.17-.29l-.24.25v.68s0,.07-.03.09c-.02.02-.05.02-.08.02h-.38s-.06,0-.08-.02c-.02-.02-.03-.04-.03-.09v-2.29s0-.07.03-.09c.02-.02.05-.02.08-.02h.38s.06,0,.08.02c.02.02.03.04.03.09v.85l.79-.87s.07-.07.09-.08c.02,0,.06-.01.1-.01h.52Z"/>
    <path class="cls-10" d="m23.4,3.63s.04-.03.07-.02c.02.01.03.03.03.06v.34s0,.06-.02.08-.04.04-.06.06l-.24.2.24.2s.04.03.06.05.02.05.02.08v.34s-.01.05-.03.06c-.02.01-.04,0-.07-.02l-.52-.46s-.05-.06-.05-.1v-.3s.02-.08.05-.1l.52-.46Zm.89.38s0,.06-.02.08c-.02.02-.04.04-.06.06l-.24.2.24.2s.04.03.06.05c.02.02.02.05.02.08v.34s-.01.05-.03.06c-.02.01-.04,0-.07-.02l-.52-.46s-.05-.06-.05-.1v-.3s.02-.08.05-.1l.52-.46s.04-.03.07-.02c.02.01.03.03.03.06v.34Z"/>
    <path class="cls-16" d="m26.75,4.74c0,.12-.03.23-.09.33s-.14.18-.23.25c-.1.07-.2.12-.32.16-.12.04-.24.06-.36.06s-.23-.02-.35-.05c-.12-.03-.23-.09-.33-.16-.1-.07-.18-.16-.24-.27-.06-.11-.1-.24-.1-.39v-.9c0-.15.03-.28.1-.39.06-.11.15-.2.24-.27s.21-.12.33-.16.24-.05.35-.05.24.02.35.05c.11.03.22.08.31.14.09.06.17.14.23.23.06.09.1.2.11.32,0,.05,0,.08-.03.09-.02.01-.05.02-.09.02h-.37s-.07-.01-.08-.04c-.01-.03-.02-.05-.04-.08-.04-.06-.09-.11-.15-.14-.06-.03-.14-.04-.24-.04-.13,0-.23.03-.31.1-.08.07-.12.16-.12.28v.8c0,.12.04.22.12.28.08.07.18.1.31.1.1,0,.19-.02.27-.06.07-.04.12-.11.13-.2,0-.04.01-.07.02-.1.01-.03.04-.04.08-.04h.37s.07.01.09.03c.02.02.02.05.02.1Z"/>
    <path class="cls-13" d="m29.17,2.97s.06,0,.08.02c.02.02.03.04.03.09v2.29s0,.07-.03.09c-.02.02-.05.02-.08.02h-.38s-.06,0-.08-.02c-.02-.02-.03-.04-.03-.09v-1.87h-.85v1.87s0,.07-.03.09c-.02.02-.05.02-.08.02h-.38s-.06,0-.08-.02c-.02-.02-.03-.04-.03-.09v-2.29s0-.07.03-.09c.02-.02.05-.02.08-.02h1.83Z"/>
    <path class="cls-7" d="m32.01,5.38s.01.05,0,.07c0,.02-.03.04-.07.04h-.4s-.07,0-.09-.02c-.02-.02-.04-.05-.05-.09l-.11-.3h-.94l-.11.3s-.03.08-.05.09c-.02.02-.05.02-.09.02h-.4s-.07-.01-.07-.04c0-.02,0-.05,0-.07l.85-2.29s.03-.07.06-.09c.02-.02.06-.03.1-.03h.37s.08,0,.1.03c.02.02.04.05.06.09l.85,2.29Zm-.9-.85l-.29-.85-.29.85h.57Z"/>
    <path class="cls-15" d="m33.32,2.97c.17,0,.31.02.44.07.12.04.23.1.31.18.08.08.15.17.19.28.04.11.06.23.06.36s-.02.25-.07.36c-.04.11-.11.2-.19.28-.09.08-.19.14-.32.18s-.27.06-.43.06h-.37v.63s0,.07-.03.09-.05.02-.08.02h-.38s-.06,0-.08-.02-.03-.04-.03-.09v-2.29s0-.06.02-.08c.02-.02.04-.03.09-.03h.86Zm0,1.25c.07,0,.14,0,.19-.03.05-.02.1-.05.13-.08.03-.03.06-.07.08-.11.02-.04.02-.09.02-.14,0-.1-.03-.18-.1-.25-.07-.07-.18-.11-.33-.11h-.37v.72h.37Z"/>
    <path class="cls-11" d="m36.45,2.97s.07,0,.09.03c.02.02.02.05.02.08v.32s0,.06-.02.08c-.02.02-.04.03-.09.03h-.59v1.87s0,.07-.03.09-.05.02-.08.02h-.38s-.06,0-.08-.02-.03-.04-.03-.09v-1.87h-.59s-.07,0-.09-.03c-.02-.02-.02-.05-.02-.08v-.32s0-.06.02-.08c.02-.02.04-.03.09-.03h1.77Z"/>
    <path class="cls-9" d="m39.11,5.38s.01.05,0,.07-.03.04-.07.04h-.4s-.07,0-.09-.02c-.02-.02-.04-.05-.05-.09l-.11-.3h-.94l-.11.3s-.03.08-.05.09-.05.02-.09.02h-.4s-.07-.01-.07-.04,0-.05,0-.07l.85-2.29s.03-.07.06-.09c.02-.02.06-.03.1-.03h.37s.08,0,.1.03c.02.02.04.05.06.09l.85,2.29Zm-.9-.85l-.29-.85-.29.85h.57Z"/>
    <path class="cls-19" d="m41.55,2.97s.06.01.06.04c0,.03,0,.05-.02.07l-.86.93.82,1.35s.02.05,0,.08c0,.03-.03.04-.07.04h-.47s-.08-.01-.11-.03-.05-.05-.08-.09c-.07-.11-.13-.22-.2-.33-.06-.09-.12-.19-.18-.3-.06-.11-.12-.2-.17-.29l-.24.25v.68s0,.07-.03.09c-.02.02-.05.02-.08.02h-.38s-.06,0-.08-.02-.03-.04-.03-.09v-2.29s0-.07.03-.09.05-.02.08-.02h.38s.06,0,.08.02c.02.02.03.04.03.09v.85l.79-.87s.07-.07.09-.08c.02,0,.06-.01.1-.01h.52Z"/>
    <path class="cls-1" d="m41.9,3.68s.01-.05.03-.06c.02-.01.04,0,.07.02l.52.46s.05.06.05.1v.3s-.02.08-.05.1l-.52.46s-.04.03-.07.02c-.02-.01-.03-.03-.03-.06v-.34s0-.06.02-.08.03-.04.06-.05l.24-.2-.24-.2s-.04-.03-.06-.06-.02-.05-.02-.08v-.34Zm1.42.41s.05.06.05.1v.3s-.02.08-.05.1l-.52.46s-.04.03-.07.02c-.02-.01-.03-.03-.03-.06v-.34s0-.06.02-.08c.02-.02.03-.04.06-.05l.24-.2-.24-.2s-.04-.03-.06-.06c-.02-.02-.02-.05-.02-.08v-.34s.01-.05.03-.06c.02-.01.04,0,.07.02l.52.46Z"/>
  </g>
</svg>